<svg width="74" height="20" viewBox="0 0 74 20" fill="none" xmlns="http://www.w3.org/2000/svg">
<path d="M41.7066 15.1231H35.6738C35.5761 15.1239 35.481 15.1553 35.402 15.2128C35.323 15.2703 35.2639 15.351 35.2331 15.4438L33.9338 19.5183C33.9042 19.6119 33.8455 19.6934 33.7662 19.7512C33.6869 19.8089 33.5911 19.8397 33.4931 19.839H32.296C32.2353 19.8393 32.1752 19.8275 32.119 19.8044C32.0629 19.7813 32.0119 19.7473 31.969 19.7044C31.926 19.6614 31.892 19.6104 31.8689 19.5543C31.8458 19.4982 31.834 19.438 31.8343 19.3773C31.8341 19.3264 31.8427 19.2758 31.8598 19.2278L37.6619 2.12941C37.6924 2.03726 37.7515 1.95727 37.8307 1.90114C37.9099 1.84502 38.005 1.81569 38.102 1.81746H39.2864C39.3826 1.81727 39.4765 1.84727 39.5548 1.90323C39.633 1.9592 39.6918 2.0383 39.7227 2.12941L45.5332 19.2278C45.5723 19.3435 45.5641 19.4699 45.5105 19.5796C45.4568 19.6892 45.3621 19.7733 45.2468 19.8135C45.1987 19.8306 45.148 19.8393 45.0969 19.839H43.9083C43.8104 19.839 43.715 19.8079 43.6358 19.7503C43.5566 19.6927 43.4977 19.6115 43.4676 19.5183L42.1466 15.4396C42.1156 15.3475 42.0564 15.2674 41.9775 15.2107C41.8986 15.1539 41.8039 15.1232 41.7066 15.1231ZM35.9732 13.1782H41.4162L38.6879 4.75056L35.9732 13.1782Z" fill="#013C50"/>
<path d="M52.52 2.11235L57.993 16.5213L63.4653 2.11235C63.4984 2.02456 63.5574 1.9489 63.6345 1.89543C63.7116 1.84196 63.8031 1.81321 63.897 1.81299H66.0389C66.0996 1.81276 66.1598 1.82455 66.2159 1.84767C66.272 1.87079 66.323 1.90479 66.366 1.94772C66.4089 1.99064 66.4429 2.04163 66.466 2.09776C66.4891 2.15388 66.5009 2.21403 66.5007 2.27473V19.3731C66.5009 19.4338 66.4892 19.494 66.4661 19.5501C66.4429 19.6063 66.4089 19.6573 66.366 19.7002C66.3231 19.7431 66.2721 19.7771 66.2159 19.8002C66.1598 19.8233 66.0996 19.8351 66.0389 19.8348H64.7097C64.649 19.8351 64.5888 19.8233 64.5327 19.8002C64.4765 19.7771 64.4255 19.7431 64.3826 19.7002C64.3397 19.6573 64.3057 19.6063 64.2826 19.5501C64.2595 19.494 64.2477 19.4338 64.248 19.3731V12.8185L64.4573 5.24176L58.9633 19.5396C58.9299 19.627 58.8707 19.702 58.7935 19.7548C58.7162 19.8075 58.6248 19.8354 58.5313 19.8348H57.4409C57.3477 19.8346 57.2566 19.8063 57.1796 19.7537C57.1027 19.701 57.0433 19.6264 57.0093 19.5396L51.5278 5.28052L51.7504 12.8185V19.373C51.7507 19.4337 51.7389 19.4938 51.7158 19.55C51.6927 19.6061 51.6587 19.6571 51.6157 19.7C51.5728 19.743 51.5218 19.777 51.4657 19.8001C51.4095 19.8232 51.3494 19.835 51.2887 19.8347H49.9586C49.8979 19.8349 49.8378 19.8232 49.7817 19.8C49.7255 19.7769 49.6745 19.7429 49.6316 19.7C49.5887 19.6571 49.5547 19.6061 49.5316 19.5499C49.5084 19.4938 49.4967 19.4337 49.4969 19.373V2.2748C49.4967 2.21411 49.5085 2.15398 49.5316 2.09787C49.5548 2.04176 49.5888 1.99078 49.6317 1.94787C49.6746 1.90495 49.7256 1.87095 49.7817 1.84781C49.8378 1.82468 49.8979 1.81287 49.9586 1.81306H52.088C52.1819 1.81322 52.2735 1.84193 52.3506 1.89539C52.4278 1.94885 52.4868 2.02452 52.52 2.11235Z" fill="#013C50"/>
<path d="M73.5382 19.8391H72.2085C72.1478 19.8393 72.0877 19.8275 72.0315 19.8044C71.9754 19.7813 71.9244 19.7473 71.8815 19.7044C71.8386 19.6614 71.8046 19.6104 71.7814 19.5543C71.7583 19.4982 71.7465 19.438 71.7468 19.3773V2.27498C71.7466 2.21428 71.7584 2.15415 71.7815 2.09805C71.8047 2.04194 71.8387 1.99096 71.8816 1.94804C71.9245 1.90513 71.9755 1.87112 72.0316 1.84799C72.0877 1.82485 72.1478 1.81304 72.2085 1.81324H73.5382C73.599 1.813 73.6591 1.82479 73.7152 1.84791C73.7713 1.87104 73.8223 1.90504 73.8653 1.94796C73.9082 1.99088 73.9422 2.04188 73.9653 2.098C73.9884 2.15413 74.0002 2.21427 74 2.27498V19.3734C74.0003 19.4343 73.9887 19.4947 73.9656 19.5511C73.9426 19.6075 73.9087 19.6589 73.8658 19.7021C73.8229 19.7454 73.7719 19.7798 73.7157 19.8034C73.6595 19.8269 73.5992 19.8391 73.5382 19.8394V19.8391Z" fill="#013C50"/>
<path d="M28.756 17.8938H23.4972C23.4365 17.8939 23.3763 17.8821 23.3202 17.859C23.2641 17.8359 23.2132 17.8019 23.1702 17.7589C23.1273 17.716 23.0933 17.6651 23.0702 17.6089C23.047 17.5528 23.0352 17.4927 23.0354 17.432V2.27498C23.0357 2.21427 23.0239 2.15412 23.0008 2.09799C22.9777 2.04186 22.9436 1.99086 22.9007 1.94794C22.8578 1.90502 22.8068 1.87101 22.7507 1.84789C22.6945 1.82477 22.6344 1.813 22.5737 1.81324H21.3764C21.2535 1.8133 21.1357 1.86184 21.0484 1.9483C20.9612 2.03475 20.9116 2.15215 20.9104 2.27498V19.3734C20.9101 19.4341 20.9219 19.4942 20.945 19.5504C20.9681 19.6065 21.0021 19.6575 21.045 19.7004C21.088 19.7434 21.139 19.7774 21.1951 19.8005C21.2512 19.8236 21.3114 19.8354 21.3721 19.8351H28.756C28.8167 19.8354 28.8769 19.8236 28.933 19.8005C28.9892 19.7774 29.0402 19.7434 29.0831 19.7004C29.126 19.6575 29.16 19.6065 29.1832 19.5504C29.2063 19.4942 29.218 19.4341 29.2178 19.3734V18.3555C29.2176 18.2331 29.1689 18.1158 29.0823 18.0292C28.9958 17.9426 28.8784 17.8939 28.756 17.8938Z" fill="#013C50"/>
<path d="M14.4714 15.7728L8.27622 2.64289C8.26694 2.62301 8.25376 2.60519 8.23746 2.59049C8.22116 2.5758 8.20208 2.56453 8.18134 2.55735C8.1606 2.55017 8.13864 2.54724 8.11674 2.54871C8.09485 2.55018 8.07347 2.55604 8.05388 2.56593C8.01944 2.58095 7.99195 2.60844 7.97693 2.64289L7.52351 3.60884C7.51297 3.63086 7.5075 3.65497 7.5075 3.67939C7.5075 3.70381 7.51297 3.72792 7.52351 3.74995L12.6201 14.5202C12.6385 14.5605 12.6404 14.6064 12.6251 14.648C12.6099 14.6897 12.5789 14.7236 12.5389 14.7425C12.5173 14.7523 12.4942 14.7581 12.4706 14.7597H11.5471C11.5159 14.7595 11.4853 14.7506 11.4588 14.7341C11.4323 14.7175 11.411 14.6939 11.3972 14.6658L7.02784 5.29811C7.01853 5.27825 7.00533 5.26046 6.98903 5.24578C6.97273 5.23111 6.95365 5.21986 6.93292 5.21268C6.9122 5.20551 6.89024 5.20256 6.86836 5.20402C6.84647 5.20547 6.8251 5.2113 6.80551 5.22115C6.77114 5.23628 6.74369 5.26374 6.72855 5.29811L0.01583 19.54C-0.00273792 19.5791 -0.00506743 19.6241 0.00934962 19.6649C0.0237667 19.7058 0.0537601 19.7393 0.0927865 19.7581C0.1158 19.7683 0.140491 19.7741 0.165616 19.7753H3.4234C3.45519 19.7752 3.48627 19.7659 3.51283 19.7484C3.53939 19.7309 3.56027 19.7061 3.57291 19.6769L5.15087 16.1369C5.16351 16.1077 5.18439 16.0829 5.21095 16.0654C5.2375 16.0479 5.26858 16.0386 5.30037 16.0385L14.3217 16.0084C14.3653 16.0075 14.4067 15.9895 14.4371 15.9583C14.4674 15.9271 14.4844 15.8853 14.4842 15.8417C14.484 15.8182 14.4797 15.7949 14.4714 15.7728ZM8.18198 10.2148L10.3881 14.6273C10.3932 14.6374 10.3963 14.6484 10.3971 14.6596C10.3979 14.6709 10.3965 14.6822 10.3929 14.6929C10.3893 14.7037 10.3836 14.7136 10.3762 14.7221C10.3687 14.7306 10.3597 14.7375 10.3495 14.7424C10.3374 14.7475 10.3245 14.7505 10.3114 14.7512H5.99271C5.97008 14.7511 5.9484 14.7421 5.9324 14.7261C5.91641 14.7101 5.90738 14.6884 5.90728 14.6658C5.90796 14.6525 5.91091 14.6395 5.91603 14.6272L8.02786 10.2147C8.03289 10.2046 8.03988 10.1955 8.04842 10.1881C8.05696 10.1807 8.06689 10.175 8.07763 10.1714C8.08837 10.1678 8.09972 10.1664 8.11101 10.1672C8.1223 10.168 8.13332 10.1711 8.14343 10.1762C8.1603 10.1843 8.1739 10.1979 8.18198 10.2147V10.2148Z" fill="#013C50"/>
<path d="M16.498 18.1246H14.4673C14.4231 18.1246 14.3808 18.1422 14.3495 18.1734C14.3182 18.2047 14.3006 18.247 14.3005 18.2912C14.301 18.3196 14.3083 18.3474 14.3218 18.3724L15.0746 19.6938C15.0893 19.7194 15.1105 19.7407 15.136 19.7557C15.1614 19.7706 15.1903 19.7787 15.2199 19.7792H18.6146C18.6365 19.7792 18.6582 19.7749 18.6784 19.7665C18.6986 19.7582 18.717 19.7459 18.7324 19.7304C18.7479 19.7149 18.7602 19.6966 18.7686 19.6763C18.7769 19.6561 18.7812 19.6344 18.7812 19.6126C18.7817 19.5873 18.7759 19.5623 18.7644 19.5397L9.47752 0.0944504C9.46821 0.0745921 9.45501 0.0568016 9.43871 0.0421297C9.42241 0.0274578 9.40333 0.0162022 9.3826 0.00902821C9.36188 0.00185418 9.33992 -0.00109294 9.31804 0.000361059C9.29615 0.00181506 9.27478 0.00764063 9.25519 0.0174936C9.2209 0.0327479 9.19348 0.0601651 9.17823 0.0944504L8.68662 1.13365C8.67607 1.15567 8.67059 1.17978 8.67059 1.2042C8.67059 1.22862 8.67607 1.25273 8.68662 1.27476L16.6481 17.8852C16.6664 17.925 16.6686 17.9703 16.6542 18.0118C16.6399 18.0532 16.6102 18.0875 16.5712 18.1075C16.5481 18.1178 16.5233 18.1236 16.498 18.1246Z" fill="#013C50"/>
</svg>
