<svg height="40" viewBox="0 0 200 40" width="200" xmlns="http://www.w3.org/2000/svg"><g fill="none"><g fill="#8ac440" transform="translate(21.997106)"><path d="m16.3241679 3.76811594c-.0289436-.20289855-.0868307-.4057971-.1157743-.60869565 0 0 0 0 0-.02898551-.2315484-.05797101-.4630969-.11594203-.6946454-.14492753-.0289436 0-.0289436 0-.0578871 0-.2894356-.02898551-.5788712-.05797102-.8972504-.05797102-1.5918958 0-3.1837916.60869565-4.3994211 1.79710145-.0289436.02898551-.0578871.05797102-.0578871.05797102-.0289436.0289855-.0289436.0289855-.0578872.05797101-1.4182344 1.44927536-1.9971056 3.42028986-1.73661356 5.30434779v.0579711c.02894356.231884.11577424.4927536.17366136.7246376.20260492.057971.40520984.0869566.60781476.1159421.08683068.0289855.17366136.0289855.26049204.0289855.26049204.0289855.52098408.057971.7814761.057971 1.4182345 0 2.8364689-.4637681 3.9942113-1.42028987.1736614-.14492754.3473227-.28985507.4920405-.43478261.1736614-.17391304.3183792-.31884058.4341534-.49275362 1.0998553-1.36231884 1.5629523-3.10144928 1.3603474-4.75362319-.0578872-.08695652-.0578872-.17391305-.0868307-.26086957z"/><path d="m7.40955137 10.2608696c-.31837916-2.23188409.40520985-4.40579714 1.96816209-6.02898554.02894356-.02898551.05788712-.05797102.08683068-.08695652.02894356-.02898551.05788712-.05797102.08683068-.08695653.08683068-.08695652.17366136-.14492753.26049204-.23188405-.2894356-.43478261-.60781476-.86956522-.98408104-1.24637682-.02894356-.0289855-.05788712-.05797101-.08683068-.08695652-.02894356-.0289855-.05788712-.05797101-.08683068-.08695652-1.93921853-1.88405797-4.57308249-2.66666667-7.06222866-2.31884058-.02894356 0-.05788712 0-.08683068 0-.31837916.05797102-.60781476.11594203-.92619392.20289855v.02898551c-.05788712.26086956-.11577424.52173913-.17366136.7826087-.02894356.11594202-.05788712.23188405-.05788712.34782608-.26049204 2.23188406.34732272 4.52173913 1.82344428 6.34782609.17366136.23188406.37626629.46376812.60781477.66666667.20260492.20289855.4341534.4057971.66570188.60869565 1.24457308.98550723 2.69175108 1.59420293 4.16787265 1.79710143-.05788712-.173913-.08683068-.3768116-.11577425-.5797101-.05788712.0289855-.08683068 0-.08683068-.0289855z"/><path d="m177.655572 19.5942029c-.028944-.1449275-.057887-.2898551-.057887-.4347826-.057888-.4057971-.115775-.8115942-.231549-1.1884058 0-.0289855 0-.0289855 0-.0289855-.89725-3.0434783-3.704776-5.2463768-7.033285-5.2463768-2.026049 0-3.849494.8115942-5.180897 2.1449275v-8.31884057c0-.57971014-.492041-1.07246377-1.070912-1.07246377h-.202605-3.704776-.260492c-.578871 0-1.070911.49275363-1.070911 1.07246377v.17391304 7.21739133.0869565 4.8405797.115942 13.3043479.2028985c0 .5797102.49204 1.0724638 1.070911 1.0724638h.260492 3.704776.202605c.578871 0 1.070912-.4927536 1.070912-1.0724638v-10.2898551h.028943c0-1.7681159 1.447178-3.2173913 3.212735-3.2173913 1.765558 0 3.212736 1.4492754 3.212736 3.2173913v4.7536232 5.5362319c0 .5797102.49204 1.0724638 1.070911 1.0724638h.318379 3.762663.057887c.057888 0 .086831 0 .144718-.0289855.289436-.0289855.492041-.1449276.636759-.2898551.057887-.0869565.115774-.173913.173661-.2898551.057887-.1449275.115774-.289855.115774-.4637681v-.2028985-9.9710145-.3478261-.0869565c0-.7536232-.086831-1.5072464-.231548-2.2608696z"/><path d="m101.360347 14.7826087h-2.6049201s-.1157742-2.115942.1736614-2.5217391c.1157742-.1739131.2315485-.3478261.4052098-.4927537.1736614-.1449275.3473227-.2608695.5499277-.347826.2026052-.0869566.4341532-.1159421.6657022-.1159421h.318379c.347323 0 .636758-.1449275.839363-.4057971.202605-.2608695.318379-.6086956.318379-1.01449273v-3.13043478c0-.4057971-.08683-.69565218-.289435-.92753623-.202605-.23188406-.492041-.34782609-.868307-.34782609h-.318379c-1.0419685 0-2.0260496.20289855-2.981187.57971014-.9551375.3768116-1.7945008.92753624-2.5180898 1.5942029-.723589.66666667-1.3024602 1.44927537-1.7366136 2.34782609-.4341534.8985507-.6657019 1.8550725-.6657019 2.8695652v.057971c-.0289435.0869566-.0289435.1449276-.0289435.2318841v1.6231884h-1.6497829c-.3762663 0-.6946455.0869565-.926194.2898551-.2315484.2028985-.3473227.5217391-.3473227.9565217v2.9855073c0 .4637681.1157743.8115942.3473227 1.0434782.2315485.2318841.5499277.3188406.926194.3188406h1.6497829v11.942029c0 .5797101.4920405 1.0724637 1.0709117 1.0724637h.260492 3.5311144.3762663c.5788712 0 1.0709117-.4927536 1.0709117-1.0724637v-11.942029h2.4602027c.376266 0 .665702-.115942.868307-.3188406.202605-.231884.289435-.5507246.289435-1.0434782v-2.9855073c0-.4347826-.08683-.7536232-.289435-.9565217-.260492-.2028986-.520984-.2898551-.897251-.2898551z"/><path d="m155.311143 22.4347826c-.578871-.5217391-1.273516-.9565217-2.054992-1.3333333-.781477-.3478261-1.649783-.6956522-2.604921-.9855073-.260492-.0869565-.520984-.1449275-.839363-.2028985-.289436-.057971-.578871-.1449276-.839363-.2318841s-.492041-.231884-.665702-.3768116c-.173662-.1449275-.289436-.3768116-.318379-.6376811-.028944-.3768116.115774-.6376812.434153-.8115942.318379-.1739131.723589-.2608696 1.215629-.2608696.40521 0 .839364.057971 1.331404.2028985.463097.1449276.897251.4057972 1.273517.8405798.086831.115942.173661.2028985.289436.2608695.115774.0869565.202604.1159421.318379.1449276.115774.0289855.231548.0289855.376266 0 .115774-.0289855.260492-.0869566.376266-.2028986.40521-.4057971.781476-.7536232 1.157743-1.1014493.376266-.3188405.752532-.6666666 1.186686-.9855072.231548-.2028986.347322-.4057971.347322-.5797102 0-.173913-.08683-.3768116-.289435-.5797101-.492041-.5217391-.984081-.9565217-1.476122-1.3333333-.49204-.3768116-1.013024-.6666667-1.534009-.9275363-.520984-.231884-1.070911-.4057971-1.649782-.5217391-.578872-.115942-1.186686-.173913-1.852388-.173913-1.099856 0-2.083937.1449275-2.981187.4057971-.89725.289855-1.649783.6666666-2.315485 1.1884058-.636758.5217391-1.128799 1.1304347-1.476121 1.8260869-.347323.7246377-.520984 1.5072464-.520984 2.3768116 0 .7536232.08683 1.4492754.289435 2.1449275.202605.6666667.520984 1.3043479 1.013025 1.884058.49204.5797102 1.128799 1.1014493 1.939218 1.5942029.81042.4637681 1.852388.8695652 3.125905 1.2173913.40521.115942.752532.2318841 1.070911.3188406.31838.0869565.578872.2028985.81042.3188406.231549.115942.376266.2608695.492041.4347826.115774.173913.173661.4057971.173661.6956522 0 .3188405-.115774.5797101-.318379.7536231-.202605.1739131-.463097.3188406-.723589.3768116-.289436.0869566-.578871.1159421-.89725.1449276-.31838.0289855-.578872.0289855-.752533.0289855-.086831 0-.231549-.0289855-.463097-.0869565s-.492041-.1449276-.81042-.2608696-.607814-.2898551-.955137-.4637681c-.318379-.2028986-.636758-.4347826-.926194-.7246377-.318379-.2898551-.549928-.4637681-.752533-.5507246-.202605-.057971-.405209 0-.665702.231884l-2.026049 2.0289855c-.115774.0869566-.231548.2028986-.289435.3478261-.057887.1449276-.086831.2898551-.086831.4347826 0 .1449276.028944.3188406.086831.4927536.057887.1739131.144717.3188406.260492.4637682.434153.5797101.955137 1.0724637 1.505065 1.4782608.578871.4057971 1.157742.7246377 1.794501.9855073.636758.2608695 1.273516.4347826 1.968162.5507246.665702.115942 1.331403.1739131 1.997105.1739131 1.157743 0 2.228654-.1449276 3.212735-.4347826.984082-.2898551 1.852388-.7246377 2.575977-1.2753624.723589-.5507246 1.302461-1.2463768 1.70767-2.057971.40521-.8115942.636759-1.7391304.636759-2.7826087 0-1.0434782-.173662-1.9130435-.492041-2.6666666-.347323-.6666667-.81042-1.2753624-1.389291-1.7971015z"/><path d="m138.437048 17.4492754c-.434154-.6956522-.955138-1.3623189-1.562952-1.942029-.607815-.5797102-1.273517-1.1014493-1.997106-1.5072464-.723589-.4347826-1.505065-.7536232-2.315485-.9855072-.81042-.2318841-1.678726-.3478261-2.547033-.3478261-.955138 0-1.881332.115942-2.749638.3768116-.868307.2608695-1.678727.6086956-2.402316 1.0724637s-1.418234 1.0144928-1.997106 1.6521739c-.607814.6376812-1.099855 1.3333334-1.505065 2.0869566s-.723589 1.5652174-.955137 2.4347826c-.231549.8695652-.347323 1.7681159-.347323 2.6956521 0 1.4782609.289436 2.8695653.839363 4.1449276.578872 1.2753623 1.331404 2.3768116 2.315485 3.3043478s2.083936 1.6521739 3.386397 2.2028986c1.273516.5217391 2.662807.7826087 4.081042.7826087 1.30246 0 2.518089-.2318841 3.675832-.7246377 1.157742-.4927536 2.19971-1.1594203 3.125904-2 .144718-.1159421.289436-.2608696.40521-.4057971.115774-.1449276.173661-.3478261.173661-.5507247 0-.115942-.028943-.231884-.057887-.3478261-.028943-.115942-.115774-.231884-.231548-.3768115l-1.678727-1.9130435c-.173661-.1739131-.347322-.3188406-.49204-.4057971s-.289436-.1449276-.40521-.1449276c-.144718 0-.260492.0289855-.376266.1159421-.115774.057971-.260492.173913-.434154.3188405-.202605.2028986-.434153.3768116-.752532.5507247-.318379.173913-.665702.3188406-1.013025.4637681-.376266.1449275-.752532.2318841-1.157742.3188406s-.781476.115942-1.157743.115942c-.434153 0-.868306-.057971-1.331403-.173913-.463097-.1159421-.926194-.3188406-1.331404-.5797102-.434154-.2608695-.781476-.6376811-1.128799-1.0724637-.318379-.4637682-.520984-1.0144928-.636758-1.6811595h11.374819c.665702 0 1.157742-.0289855 1.505065-.115942s.578871-.2318841.723589-.4347826c.144718-.2028986.231548-.4927536.231548-.8405797.028944-.3478261.028944-.7826087.028944-1.3333333 0-.8405798-.115774-1.652174-.347323-2.4637682-.202605-.8405797-.520984-1.5942029-.955137-2.289855zm-12.3589 2.9275362c.173661-.3478261.376266-.7246377.665701-1.0724638.260493-.3478261.578872-.6666666.897251-.9275362.347323-.2608696.694645-.4927536 1.070912-.6666667.376266-.173913.781476-.231884 1.186686-.231884.578871 0 1.070911.0869565 1.505065.231884.434153.1449276.810419.3478261 1.128799.6086957.318379.2608695.636758.5797101.89725.9275362s.49204.7246377.723589 1.1304348z"/><path d="m120.868307 15.3913043c.318379-.4927536.173661-1.1594202-.289436-1.4782608-.289435-.2028986-.607815-.3768116-.926194-.5507247-5.441389-1.7101449-8.162084-.057971-9.146165 1.4782609v-.9275362-.2028986c0-.289855-.115774-.5797101-.318379-.7826087-.028943-.0289855-.028943-.0289855-.057887-.057971-.028944 0-.028944-.0289855-.057887-.0289855-.028944-.0289855-.057887-.0289855-.086831-.057971-.028943-.0289855-.08683-.057971-.144718-.057971 0 0-.028943 0-.028943-.0289855-.057887-.0289855-.086831-.0289855-.144718-.057971-.028944 0-.028944 0-.057887 0-.057887 0-.115774-.0289855-.202605-.0289855h-1.447178-2.460203-.231548c-.578871 0-1.070912.4927536-1.070912 1.0724637v.1449276 13.2173913 2.4347826 2.5797101.2028986c0 .5797101.492041 1.0724637 1.070912 1.0724637h4.167873c.578871 0 1.070911-.4927536 1.070911-1.0724637v-2.6956522-2.4347826-4.7246377c.115775-2.2898551 2.02605-4.115942 4.341534-4.115942.231549 0 .434154.0289855.636759.057971h.028943c.144718.0289855.260492.057971.40521.0869565.028944 0 .028944.0289855.057887.0289855.347323.0869565.868307.2608696 1.389291.4637681.926194.4057971 1.21563.3188406 1.649783-.4057971l1.157742-1.9710145z"/></g><g fill="#f05a2a" transform="translate(0 5.217391)"><path d="m109.898698 7.94202899c-.086831-.14492754-.202605-.26086957-.376267-.31884058-.173661-.08695653-.40521-.11594203-.723589-.11594203h-4.196816c-.318379 0-.578871.05797101-.781476.17391304-.173661.11594203-.347323.34782609-.463097.69565217l-4.5151954 13.15942031-4.6309696-13.15942031c-.0868307-.26086956-.2315485-.46376811-.4052099-.63768116-.1736613-.17391304-.4052098-.26086956-.6657018-.26086956h-3.9942113c-.5788712 0-.9551375.14492754-1.1287989.46376812-.1736613.31884058-.1736613.69565217 0 1.13043478l7.7858177 19.13043483-1.8813314 4.8985507c-.0289436.0289855-.0578871.057971-.0868307.1449275s-.0578871.1739131-.0578871.3188406c0 .3768116.0868307.6666667.260492.8405797.1736614.2028986.5209841.2898551 1.0130246.2898551h3.7626628c.2894356 0 .5209841-.0869565.723589-.2608696.202605-.173913.3183792-.4057971.4052099-.7246377l-.0578871.0869565c.1447182-.4057971.3762662-1.0144927.6657022-1.7681159.289435-.7536232 1.215629-3.0144927 1.678726-4.2028985.492041-1.2173913.984081-2.4637682 1.505065-3.768116s1.041968-2.6376811 1.591896-4c.549928-1.3623188 1.070912-2.6956522 1.620839-4 .520984-1.3043478 1.041969-2.5797101 1.534009-3.7971014.492041-1.2173913.955138-2.34782612 1.360347-3.36231888.057888-.17391304.115775-.31884058.115775-.49275362.028943-.17391304 0-.31884058-.057887-.46376811z"/><path d="m41.6208394 7.47826087c-.0578872 0-.1447178-.02898551-.202605-.02898551h-4.1678726c-.2894356 0-.5499276.11594203-.7525326.28985507 0 0-.0289435.02898551-.0289435.02898551-.2315485.20289855-.3473227.46376812-.3473227.7826087v1.13043478c-1.0419682-1.50724638-3.7337193-3.04347826-8.1331404-1.68115942-.1447178.05797101-.2894356.08695652-.4052099.11594203-3.9073806 1.50724638-6.6859623 5.30434787-6.6859623 9.73913047 0 4.8405797 3.2995658 8.8985507 7.7568741 10.0869565 3.6468885.5797101 6.5991317-.7826087 7.496382-2.0289855v1.1014493.2028985c0 .2898551.1157743.5797101.3183792.7536232.2026049.173913.4630969.2898551.7525325.2898551h4.1678727.0578871.0289436c.5788712 0 1.0709117-.4927537 1.0709117-1.0724638v-.057971-.2028986-2.5797101-2.5217391-13.30434787c-.0868307-.52173913-.4341534-.92753623-.9261939-1.04347826zm-10.3617945 15.18840583c-2.633864 0-4.7756874-2.1449276-4.7756874-4.7826087 0-2.6376812 2.1418234-4.7826087 4.7756874-4.7826087 2.6338639 0 4.7756874 2.1449275 4.7756874 4.7826087 0 2.6376811-2.1418235 4.7826087-4.7756874 4.7826087z"/><path d="m18.8712012 13.942029c-.0578872-.4057971-.1157743-.8115942-.2315485-1.1884058 0-.0289855 0-.0289855 0-.0289855-.8972504-3.04347828-3.7047757-5.24637683-7.0332851-5.24637683-2.02604922 0-3.8494935.8115942-5.18089727 2.14492754v-8.28985508c0-.57971014-.49204052-1.07246376-1.07091172-1.07246376h-.20260492-3.70477569-.26049204c-.5788712 0-1.07091172.49275362-1.07091172 1.07246376v.17391305 7.15942029.08695652 4.86956521.115942 13.3043479.2028985c0 .5797102.49204052 1.0724638 1.07091172 1.0724638h.26049204 3.70477569.20260492c.5788712 0 1.07091172-.4927536 1.07091172-1.0724638v-10.2898551h.02894356c0-1.7681159 1.44717801-3.2173913 3.21273517-3.2173913 1.76555714 0 3.21273514 1.4492754 3.21273514 3.2173913v4.7536232 5.5362319c0 .5797102.4920405 1.0724638 1.0709117 1.0724638h.3183792 3.7626628.0578871c.0578872 0 .0868307 0 .1447178-.0289855.2894356-.0289855.4920406-.1449276.6367584-.2898551.0578871-.0869565.1157742-.173913.1736613-.2898551.0578871-.1449275.1157743-.289855.1157743-.4637681v-.2028985-9.9710145-.3478261-.0869565c0-.7826087-.0578872-1.5362319-.202605-2.2608696-.0289435-.1449275-.0578871-.2898551-.0868306-.4347826z"/><path d="m81.8813314 8.02898551c-4.5730825-1.39130435-7.3227207.31884058-8.2199711 1.88405797v-1.1884058-.20289855c0-.26086956-.0868306-.49275362-.260492-.69565217 0-.02898551 0-.05797102 0-.08695653-.2026049-.17391304-.463097-.28985507-.7525326-.28985507h-.0578871-4.0810419-.0578872c-.5788712 0-1.0709117.49275363-1.0709117 1.07246377v13.36231887 2.5217391 2.5797101.2028986c0 .1449275.0289436.2608696.0578871.3768116v6.057971c0 .5797102.4920406 1.0724638 1.0709118 1.0724638h4.138929c.5788712 0 1.0709118-.4927536 1.0709118-1.0724638v-6.4637681c1.4182344.7536232 3.0390738 1.1594203 4.7756874 1.1594203 5.7597684 0 10.4196816-4.6666667 10.4196816-10.4347826-.0289436-4.5797102-2.9522431-8.43478264-7.0332851-9.85507249zm-3.3863965 14.63768119c-2.633864 0-4.7756874-2.1449276-4.7756874-4.7826087 0-2.6376812 2.1418234-4.7826087 4.7756874-4.7826087 2.6338639 0 4.7756874 2.1449275 4.7756874 4.7826087 0 2.6376811-2.1418235 4.7826087-4.7756874 4.7826087z"/><path d="m58.6107091 8.02898551c-4.4573082-1.36231884-7.1780029.23188406-8.1620839 1.76811594v-1.07246377-.08695652-.08695652c0-.28985507-.1157743-.57971015-.3183792-.75362319-.2026049-.17391304-.4630969-.28985507-.7525325-.28985507h-4.1678727c-.0868307 0-.1447178 0-.2026049.0289855-.4920405.08695653-.8393633.52173913-.8393633 1.04347826v13.36231886 2.5217391 2.5797102.2028985 6.3768116c0 .5797102.4920406 1.0724638 1.0709118 1.0724638h4.1678726c.5788712 0 1.0709117-.4927536 1.0709117-1.0724638v-6.4347826-.0289855c1.4182345.7536232 3.0390738 1.1594203 4.7756875 1.1594203 5.7597684 0 10.4196816-4.6666667 10.4196816-10.4347826-.0289436-4.5797102-2.9522432-8.43478264-7.0622287-9.85507249zm-3.3863965 14.63768119c-2.633864 0-4.7756874-2.1449276-4.7756874-4.7826087 0-2.6376812 2.1418234-4.7826087 4.7756874-4.7826087s4.7756874 2.1449275 4.7756874 4.7826087c0 2.6376811-2.1418234 4.7826087-4.7756874 4.7826087z"/></g></g></svg>