<svg width="124" height="28" viewBox="0 0 124 28" fill="none" xmlns="http://www.w3.org/2000/svg">
<path d="M40.0957 26.4799C38.8099 25.7719 37.7324 24.7389 36.9706 23.4842C36.2165 22.2524 35.8174 20.8361 35.8174 19.3918C35.8174 17.9475 36.2165 16.5312 36.9706 15.2994C37.7361 14.0517 38.8131 13.0246 40.0957 12.3191C41.4053 11.5946 42.8775 11.2145 44.3741 11.2145C45.8708 11.2145 47.343 11.5946 48.6526 12.3191C49.9351 13.0247 51.012 14.0518 51.7777 15.2994C52.5319 16.5312 52.931 17.9475 52.931 19.3918C52.931 20.8362 52.5319 22.2524 51.7777 23.4842C51.0147 24.7391 49.9359 25.772 48.6491 26.4799C47.3395 27.2044 45.8674 27.5844 44.3707 27.5844C42.8741 27.5844 41.4019 27.2044 40.0923 26.4799H40.0957ZM46.5208 23.2571C47.1816 22.8611 47.726 22.2975 48.0989 21.6234C48.4825 20.9399 48.6814 20.1683 48.6757 19.3845C48.6818 18.6119 48.4863 17.8511 48.1084 17.1772C47.7305 16.5033 47.1833 15.9396 46.5208 15.5419C45.8719 15.1461 45.1265 14.9368 44.3664 14.9368C43.6063 14.9368 42.8609 15.1461 42.212 15.5419C41.5498 15.9398 41.0028 16.5035 40.6251 17.1774C40.2473 17.8513 40.0519 18.612 40.058 19.3845C40.052 20.1683 40.2508 20.9401 40.6348 21.6234C41.0097 22.2988 41.5569 22.8628 42.2206 23.2579C42.8695 23.6537 43.6149 23.8631 44.375 23.8631C45.1351 23.8631 45.8805 23.6537 46.5294 23.2579" fill="#002855"/>
<path d="M60.0003 6.07141H55.5706V27.2214H60.0003V6.07141Z" fill="#002855"/>
<path d="M74.1397 12.0319C75.1622 12.5488 76.0113 13.3532 76.5826 14.3462C77.1603 15.3451 77.4491 16.5202 77.4491 17.8717V27.2214H73.1703V25.6477C72.5944 26.2733 71.8835 26.7596 71.0917 27.0697C70.279 27.407 69.408 27.5817 68.528 27.5839C67.4154 27.5839 66.4154 27.3771 65.528 26.9634C64.6774 26.5831 63.948 25.9761 63.4194 25.2088C62.9051 24.4522 62.648 23.5799 62.648 22.5919C62.6349 21.6239 62.9386 20.6782 63.5128 19.8988C64.0894 19.1119 64.8731 18.4968 65.864 18.0534C66.8965 17.601 68.0136 17.374 69.1408 17.3874C70.5264 17.3934 71.8974 17.6709 73.1763 18.2042V17.8717C73.1763 16.9642 72.8728 16.2179 72.266 15.6328C71.6591 15.0477 70.7488 14.7551 69.5351 14.7551C68.278 14.7551 66.9228 15.1282 65.4697 15.8745L63.9748 12.9397C66.24 11.7899 68.4248 11.2151 70.5294 11.2151C71.8843 11.2151 73.0877 11.4874 74.1397 12.0319ZM71.894 23.9385C72.5797 23.5454 73.0046 22.9957 73.1686 22.2894V20.8674C72.0837 20.4544 70.9308 20.2491 69.77 20.2622C68.9608 20.2622 68.2731 20.4739 67.7068 20.8974C67.1406 21.3208 66.8574 21.8454 66.8574 22.4711C66.8499 22.764 66.9153 23.0542 67.0477 23.3156C67.1801 23.5769 67.3754 23.8013 67.616 23.9685C68.1217 24.3422 68.7588 24.5288 69.5274 24.5282C70.4171 24.5282 71.206 24.3317 71.894 23.9385Z" fill="#002855"/>
<path d="M96.9877 6.07141V27.2214H92.5571V25.0126C91.9358 25.8201 91.1357 26.4725 90.2198 26.9187C89.3038 27.3649 88.2968 27.5926 87.278 27.584C85.902 27.584 84.668 27.236 83.576 26.54C82.484 25.844 81.6294 24.8711 81.0123 23.6214C80.3951 22.3711 80.0865 20.9591 80.0865 19.3854C80.0865 17.8117 80.3951 16.4048 81.0123 15.1648C81.6288 13.9243 82.4834 12.956 83.576 12.26C84.6685 11.564 85.9025 11.216 87.278 11.216C88.3088 11.2064 89.3274 11.4396 90.2514 11.8966C91.1534 12.3438 91.9419 12.9904 92.5571 13.7874V6.07312L96.9877 6.07141ZM91.4351 22.6074C92.1831 21.7708 92.5574 20.6966 92.558 19.3846C92.5585 18.0726 92.1843 17.0034 91.4351 16.1771C90.6865 15.3503 89.7257 14.9368 88.5525 14.9368C87.3388 14.9368 86.3425 15.3554 85.5637 16.1926C84.7848 17.0297 84.3943 18.0937 84.392 19.3846C84.392 20.6988 84.7814 21.7731 85.5603 22.6074C86.3391 23.4417 87.3354 23.8603 88.5491 23.8631C89.7223 23.8631 90.6831 23.4446 91.4317 22.6074" fill="#002855"/>
<path d="M100.895 8.71912C100.669 8.49595 100.491 8.22938 100.371 7.9355C100.251 7.64161 100.192 7.32649 100.197 7.00912C100.197 6.38398 100.435 5.83426 100.91 5.35998C101.132 5.13083 101.399 4.94951 101.694 4.82717C101.988 4.70483 102.305 4.64404 102.624 4.64855C102.939 4.64613 103.25 4.70798 103.54 4.83032C103.83 4.95266 104.091 5.1329 104.309 5.35998C104.783 5.83426 105.021 6.38398 105.022 7.00912C105.023 7.48779 104.882 7.95601 104.616 8.35435C104.351 8.75268 103.973 9.06317 103.531 9.24639C103.089 9.42962 102.602 9.47732 102.133 9.38344C101.663 9.28956 101.232 9.05834 100.895 8.71912ZM100.38 11.5785H104.811V27.2214H100.38V11.5785Z" fill="#002855"/>
<path d="M120.35 11.9865C121.225 12.4959 121.939 13.24 122.413 14.1345C122.909 15.0528 123.156 16.0968 123.156 17.2665V27.2214H118.908V18.2051C118.908 17.2365 118.635 16.4497 118.089 15.8445C117.543 15.2394 116.825 14.9368 115.935 14.9368C115.004 14.9368 114.22 15.2294 113.583 15.8145C113.277 16.0823 113.034 16.4132 112.869 16.7843C112.704 17.1555 112.621 17.5581 112.627 17.9642V27.2214H108.197V11.5785H112.627V13.5148C113.129 12.7948 113.808 12.2165 114.599 11.8357C115.458 11.4154 116.403 11.2028 117.359 11.2151C118.471 11.2151 119.468 11.4722 120.348 11.9865" fill="#002855"/>
<path d="M33.1769 6.85141V26.4423C33.1769 26.6489 33.0948 26.8471 32.9487 26.9932C32.8025 27.1393 32.6044 27.2214 32.3977 27.2214H28.3349C28.2326 27.2214 28.1314 27.2012 28.037 27.1621C27.9425 27.1229 27.8567 27.0655 27.7845 26.9931C27.7123 26.9207 27.6551 26.8348 27.6161 26.7403C27.5772 26.6458 27.5572 26.5445 27.5574 26.4423V6.85141C27.5572 6.74917 27.5772 6.64789 27.6161 6.55337C27.6551 6.45885 27.7123 6.37295 27.7845 6.30057C27.8567 6.2282 27.9425 6.17078 28.037 6.13161C28.1314 6.09243 28.2326 6.07227 28.3349 6.07227H32.3977C32.6044 6.07227 32.8025 6.15435 32.9487 6.30047C33.0948 6.44659 33.1769 6.64477 33.1769 6.85141Z" fill="#00A1E1"/>
<path d="M6.50174 6.85141V26.4423C6.50174 26.6489 6.41966 26.8471 6.27354 26.9932C6.12742 27.1393 5.92924 27.2214 5.7226 27.2214H1.66317C1.56094 27.2214 1.4597 27.2012 1.36527 27.1621C1.27083 27.1229 1.18505 27.0655 1.11284 26.9931C1.04063 26.9207 0.983398 26.8348 0.944429 26.7403C0.905461 26.6458 0.885519 26.5445 0.885744 26.4423V6.85141C0.885519 6.74917 0.905461 6.64789 0.944429 6.55337C0.983398 6.45885 1.04063 6.37295 1.11284 6.30057C1.18505 6.2282 1.27083 6.17078 1.36527 6.13161C1.4597 6.09243 1.56094 6.07227 1.66317 6.07227H5.72346C5.9301 6.07227 6.12828 6.15435 6.2744 6.30047C6.42051 6.44659 6.5026 6.64477 6.5026 6.85141" fill="#4FB5E6"/>
<path d="M33.1777 8.75768V11.5194L27.56 17.1371V13.994L27.5677 13.9862L33.0534 8.50053L33.1083 8.44568C33.1531 8.54446 33.1759 8.65179 33.1751 8.76025" fill="#0085D6"/>
<path d="M6.50088 13.9923V17.1398L1.01689 11.6558L0.885742 11.5221V11.5203V8.3772L1.00574 8.49891L6.49574 13.9872L6.50088 13.9923Z" fill="#00A1E1"/>
<path d="M14.792 15.4683L11.9326 18.326C11.7865 18.4717 11.5886 18.5535 11.3823 18.5535C11.176 18.5535 10.9781 18.4717 10.832 18.326L6.50344 13.994L6.4983 13.9888L1.01258 8.50311L0.890869 8.3814V6.85568C0.890869 6.75336 0.911021 6.65205 0.950177 6.55752C0.989333 6.46299 1.04672 6.3771 1.11907 6.30475C1.19142 6.23239 1.27732 6.175 1.37185 6.13585C1.46638 6.09669 1.56769 6.07654 1.67001 6.07654H6.50516L14.7012 14.2785L14.792 14.3643C14.9375 14.5104 15.0192 14.7083 15.0192 14.9145C15.0192 15.1208 14.9375 15.3186 14.792 15.4648" fill="#4FB5E6"/>
<path d="M13.6083 21.1228L16.4669 23.9806C16.6128 24.1265 16.8107 24.2085 17.0171 24.2085C17.2235 24.2085 17.4215 24.1265 17.5674 23.9806L27.5583 13.994L27.5634 13.9888L33.0491 8.50312L33.1709 8.38141V6.85055C33.1709 6.64414 33.0889 6.44618 32.9429 6.30022C32.7969 6.15426 32.599 6.07227 32.3926 6.07227H27.5634L13.7009 19.9288L13.6083 20.0214C13.5359 20.0937 13.4785 20.1795 13.4393 20.274C13.4001 20.3685 13.3799 20.4698 13.3799 20.5721C13.3799 20.6744 13.4001 20.7757 13.4393 20.8702C13.4785 20.9647 13.5359 21.0506 13.6083 21.1228Z" fill="#00A1E1"/>
<path d="M32.5434 2.63172C32.5434 3.06181 32.4159 3.48225 32.1769 3.83985C31.938 4.19746 31.5984 4.47618 31.201 4.64077C30.8037 4.80536 30.3664 4.84842 29.9446 4.76451C29.5228 4.68061 29.1353 4.4735 28.8312 4.16938C28.5271 3.86526 28.32 3.47779 28.2361 3.05596C28.1522 2.63414 28.1952 2.1969 28.3598 1.79955C28.5244 1.4022 28.8031 1.06258 29.1607 0.823635C29.5183 0.58469 29.9388 0.457153 30.3688 0.457153C30.9456 0.457153 31.4987 0.686259 31.9065 1.09407C32.3143 1.50188 32.5434 2.05499 32.5434 2.63172Z" fill="#FFB600"/>
<path d="M5.86397 2.63172C5.86397 3.06181 5.73644 3.48225 5.49749 3.83985C5.25855 4.19746 4.91893 4.47618 4.52158 4.64077C4.12423 4.80536 3.68699 4.84842 3.26517 4.76451C2.84334 4.68061 2.45587 4.4735 2.15175 4.16938C1.84763 3.86526 1.64052 3.47779 1.55662 3.05596C1.47271 2.63414 1.51577 2.1969 1.68036 1.79955C1.84495 1.4022 2.12367 1.06258 2.48128 0.823635C2.83888 0.58469 3.25931 0.457153 3.6894 0.457153C4.26614 0.457153 4.81925 0.686259 5.22706 1.09407C5.63487 1.50188 5.86397 2.05499 5.86397 2.63172Z" fill="#FFB600"/>
</svg>
