<svg width="100" height="32" viewBox="0 0 100 32" fill="none" xmlns="http://www.w3.org/2000/svg">
<path d="M50.0698 31.1449C49.9856 30.1179 49.9441 29.0909 49.9441 28.0563H49.8599C49.1295 29.2581 48.0724 30.2272 46.8128 30.8507C45.5319 31.424 44.1416 31.7106 42.7387 31.693C41.8248 31.6967 40.9147 31.5698 40.0373 31.3146C39.2189 31.0732 38.4534 30.6798 37.7809 30.1531C37.1498 29.6188 36.6445 28.9513 36.3 28.2009C35.9141 27.3775 35.7243 26.4762 35.7444 25.5661C35.7029 24.4021 36.0109 23.2531 36.6281 22.2663C37.2328 21.3524 38.0574 20.6057 39.0266 20.0941C40.1403 19.5033 41.3433 19.0998 42.5866 18.8987C44.0096 18.646 45.4514 18.519 46.8958 18.5203H49.7656V17.6781C49.7631 15.9383 48.6883 14.3783 47.0642 13.7561C46.3816 13.4984 45.655 13.3752 44.926 13.394C44.2685 13.3827 43.6123 13.4531 42.9737 13.6039C42.4508 13.7372 41.9405 13.917 41.4502 14.1432C41.0077 14.3444 40.5891 14.5958 40.2045 14.8924L39.136 15.7347L36.779 13.3023C37.8676 12.2991 39.151 11.5311 40.5501 11.0458C41.9291 10.5568 43.3798 10.3042 44.843 10.2966C46.144 10.2702 47.4413 10.4575 48.6808 10.8523C49.6512 11.169 50.5475 11.6781 51.3156 12.3507C51.9793 12.9515 52.4997 13.6945 52.8391 14.5229C53.1622 15.3249 53.3281 16.1822 53.3269 17.0483V31.1449H50.0698ZM47.6714 21.3638C46.7537 21.3638 45.8197 21.414 44.8606 21.5071C43.9681 21.5938 43.0881 21.7886 42.2434 22.0878C41.5181 22.338 40.8581 22.749 40.3163 23.2921C39.811 23.8175 39.5407 24.5252 39.5671 25.2531C39.4804 26.2449 39.9292 27.2078 40.745 27.7785C41.7104 28.3404 42.8191 28.6094 43.9354 28.5529C44.8681 28.5767 45.7933 28.3919 46.6456 28.0136C47.342 27.6867 47.9567 27.2091 48.447 26.6157C48.897 26.0526 49.2326 25.4064 49.4312 24.7138C49.6349 24.0413 49.7493 23.3449 49.7681 22.6434V21.3638H47.6714Z" fill="#F04B32"/>
<path d="M69.7577 15.9095C69.2888 15.3338 68.7181 14.8486 68.0745 14.479C67.3178 14.0717 66.4667 13.8718 65.6082 13.8982C64.7798 13.8781 63.9602 14.0793 63.2349 14.479C62.6026 14.7995 62.2104 15.4532 62.2242 16.1622C62.2028 16.7078 62.414 17.237 62.8049 17.6179C63.1997 17.9962 63.6585 18.3017 64.1601 18.5179C64.7006 18.7517 65.265 18.9239 65.8433 19.0308L67.4422 19.3589C68.2354 19.55 69.0135 19.7951 69.7741 20.0918C70.4566 20.3495 71.0915 20.719 71.6508 21.1854C72.1788 21.6518 72.6012 22.225 72.8878 22.8686C73.2058 23.6216 73.3579 24.4336 73.334 25.2507C73.363 26.279 73.1103 27.2947 72.6012 28.1884C72.1323 28.9879 71.4874 29.6705 70.7156 30.1834C69.9123 30.7126 69.0198 31.0922 68.0808 31.3034C67.1028 31.5272 66.1035 31.6403 65.1016 31.6403C63.5843 31.673 62.0759 31.4128 60.6579 30.8748C59.2902 30.2651 58.1237 29.2821 57.2915 28.0376L60.2129 25.6391C60.8465 26.2777 61.5491 26.8421 62.3084 27.3223C63.1657 27.8302 64.15 28.0816 65.1456 28.0464C65.6346 28.0464 66.1223 27.9986 66.6013 27.9031C67.0664 27.8138 67.5139 27.6554 67.9312 27.4317C68.3046 27.2243 68.6264 26.9364 68.874 26.5895C69.1191 26.2614 69.2499 25.8629 69.2448 25.4531C69.2612 24.9289 69.0663 24.4198 68.7056 24.0389C68.3423 23.658 67.9036 23.3563 67.4183 23.1552C66.8816 22.9415 66.3272 22.7781 65.7603 22.6675C65.1959 22.5418 64.7081 22.4324 64.2795 22.3482C63.4825 22.1583 62.6956 21.927 61.9225 21.658C61.2123 21.4242 60.5448 21.0773 59.9439 20.631C59.3694 20.1961 58.9005 19.638 58.5724 18.9981C58.2066 18.2376 58.0294 17.4004 58.0596 16.5569C58.0357 15.5915 58.2645 14.6374 58.7246 13.7876C59.1582 13.0133 59.7591 12.3458 60.4832 11.8354C61.25 11.3049 62.1048 10.9153 63.0086 10.6827C63.9237 10.425 64.869 10.2955 65.8194 10.2955C67.1732 10.2892 68.5157 10.5532 69.7665 11.0699C71.011 11.5714 72.0632 12.4551 72.7709 13.5953L69.7577 15.9095Z" fill="#F04B32"/>
<path d="M77.392 3.51983C77.3844 2.76685 77.6886 2.0453 78.2342 1.52488C79.3216 0.423703 81.0965 0.41113 82.1977 1.49848C82.2065 1.50728 82.2153 1.51608 82.2241 1.52488C82.7684 2.0453 83.0726 2.76685 83.0663 3.51983C83.0726 4.27281 82.7684 4.99435 82.2241 5.51478C81.1368 6.61596 79.3618 6.62853 78.2606 5.54117C78.2518 5.53237 78.243 5.52357 78.2342 5.51478C77.6899 4.99435 77.3844 4.27155 77.392 3.51983ZM78.2933 10.8082H82.1562V31.1449H78.2933V10.8082Z" fill="#F04B32"/>
<path d="M88.2842 10.8082H92.1472V13.9395H92.2314C92.4903 13.3927 92.8373 12.8924 93.2584 12.4587C93.6883 12.02 94.1723 11.6391 94.6977 11.3223C95.242 11.0018 95.8253 10.7503 96.4312 10.5731C97.0434 10.3908 97.6782 10.2978 98.3168 10.2953C98.8875 10.2915 99.4557 10.377 100 10.548L99.8315 14.7566C99.5122 14.6723 99.2005 14.5969 98.8887 14.5378C98.577 14.4851 98.2615 14.4574 97.9459 14.4536C96.3595 14.3417 94.7995 14.8999 93.6443 15.9935C92.6424 17.0457 92.1459 18.6949 92.1459 20.9262V31.1448H88.283V10.8082H88.2842Z" fill="#F04B32"/>
<path d="M31.136 27.3963H25.6904C29.0241 24.5415 31.136 20.3014 31.136 15.5686C31.136 6.97037 24.1656 0 15.5686 0C6.97037 0 0 6.97037 0 15.5686C0 24.1669 6.97037 31.136 15.5686 31.136H34.2497L31.136 27.3963ZM3.81768 15.5686C3.81768 9.08977 9.08851 3.81768 15.5686 3.81768C22.0475 3.81768 27.3183 9.08977 27.3183 15.5686C27.3183 22.0475 22.0475 27.3183 15.5686 27.3183C9.08851 27.3183 3.81768 22.0475 3.81768 15.5686Z" fill="#F04B32"/>
</svg>
