<svg width="109" height="54" viewBox="0 0 109 54" fill="none" xmlns="http://www.w3.org/2000/svg">
<path d="M19.1479 29.1319H16.5594L16.4268 28.674L22.135 22.7373H22.4002V26.55H26.7141C26.8021 26.9206 26.8466 27.3346 26.8466 27.7917C26.8466 28.0321 26.8353 28.261 26.8137 28.4785C26.791 28.6963 26.7582 28.9144 26.7141 29.1319H22.4002V37.118C22.4002 38.0333 22.4384 38.7632 22.5164 39.3077C22.5934 39.8529 22.7261 40.2718 22.914 40.5661C23.1019 40.8604 23.3566 41.0566 23.6778 41.1544C23.9977 41.2528 24.4016 41.3016 24.8889 41.3016C25.265 41.3016 25.619 41.2744 25.9509 41.2198C26.2826 41.1662 26.5814 41.1054 26.8466 41.0396C27.0013 41.4765 27.0954 41.9226 27.1289 42.3801C27.1618 42.8372 27.1782 43.2408 27.1782 43.5891C26.7357 43.6983 26.2707 43.7797 25.7846 43.8346C25.2978 43.8883 24.778 43.9164 24.2254 43.9164C22.6324 43.9164 21.3877 43.5348 20.492 42.7722C19.5963 42.0099 19.1479 40.7459 19.1479 38.9814V29.1319Z" fill="#2D2D2D"/>
<path d="M35.5968 44.0466C34.2693 44.0466 33.1077 43.8229 32.1122 43.3768C31.117 42.9305 30.2873 42.314 29.6237 41.5298C28.9596 40.7456 28.4673 39.8192 28.1468 38.7521C27.8259 37.6847 27.6655 36.5294 27.6655 35.2874C27.6655 34.0453 27.8259 32.891 28.1468 31.8229C28.4673 30.7555 28.9596 29.8294 29.6237 29.0449C30.2873 28.2607 31.117 27.64 32.1122 27.1819C33.1077 26.7247 34.2693 26.4961 35.5968 26.4961C36.9234 26.4961 38.0854 26.7247 39.0811 27.1819C40.0764 27.64 40.9061 28.2607 41.5697 29.0449C42.2336 29.8294 42.7256 30.7555 43.0466 31.8229C43.3663 32.891 43.5278 34.0453 43.5278 35.2874C43.5278 36.5294 43.3663 37.6847 43.0466 38.7521C42.7256 39.8192 42.2336 40.7456 41.5697 41.5298C40.9061 42.314 40.0764 42.9305 39.0811 43.3768C38.0854 43.8229 36.9234 44.0466 35.5968 44.0466ZM35.5968 41.4651C37.1226 41.4651 38.2512 40.9203 38.9815 39.8303C39.7116 38.741 40.0764 37.2269 40.0764 35.2874C40.0764 33.3481 39.7116 31.8393 38.9815 30.7608C38.2512 29.6822 37.1226 29.143 35.5968 29.143C34.0701 29.143 32.947 29.6822 32.2285 30.7608C31.5093 31.8393 31.15 33.3481 31.15 35.2874C31.15 37.2269 31.5093 38.741 32.2285 39.8303C32.947 40.9203 34.0701 41.4651 35.5968 41.4651Z" fill="#2D2D2D"/>
<path d="M57.4707 40.7456C57.6476 41.0507 57.8024 41.4317 57.9352 41.8899C58.0683 42.3474 58.1454 42.8157 58.1679 43.2951C56.8621 43.7957 55.3684 44.0466 53.6878 44.0466C50.8555 44.0466 48.721 43.2571 47.2837 41.6767C45.8451 40.0975 45.127 37.9673 45.127 35.2874C45.127 34.0453 45.3029 32.891 45.6575 31.8229C46.0106 30.7555 46.5364 29.8294 47.2337 29.0449C47.9306 28.2607 48.7982 27.64 49.8388 27.1819C50.8787 26.7247 52.0836 26.4961 53.4558 26.4961C54.3845 26.4961 55.2029 26.5504 55.9114 26.6586C56.619 26.7682 57.2934 26.9425 57.9352 27.1819C57.9352 27.553 57.8854 27.9831 57.7861 28.4729C57.6865 28.9631 57.5477 29.3938 57.3714 29.7643C56.287 29.3938 55.0478 29.2084 53.6542 29.2084C51.9512 29.2084 50.6792 29.7643 49.8388 30.8752C48.9978 31.9861 48.5781 33.457 48.5781 35.2874C48.5781 37.3793 49.0529 38.9104 50.0043 39.8794C50.9554 40.849 52.2608 41.3336 53.9204 41.3336C54.584 41.3336 55.1978 41.2901 55.7621 41.2031C56.3255 41.1165 56.8946 40.9634 57.4707 40.7456Z" fill="#2D2D2D"/>
<path d="M59.9316 19.4615C60.18 19.4181 60.4566 19.3844 60.7604 19.3625C61.0652 19.3399 61.3418 19.3281 61.5895 19.3281C61.8379 19.3281 62.1198 19.3399 62.4358 19.3625C62.7513 19.3844 63.0328 19.4181 63.2815 19.4615V43.8893C63.0328 43.9334 62.7513 43.9668 62.4358 43.9896C62.1198 44.0109 61.8379 44.0223 61.5895 44.0223C61.3418 44.0223 61.0652 44.0109 60.7604 43.9896C60.4566 43.9668 60.18 43.9334 59.9316 43.8893V19.4615Z" fill="#2D2D2D"/>
<path d="M75.0571 19.6969C75.3005 19.6537 75.5718 19.621 75.8706 19.5994C76.1691 19.5775 76.4397 19.5664 76.6834 19.5664C76.9268 19.5664 77.203 19.5775 77.5135 19.5994C77.8226 19.621 78.0987 19.6537 78.3431 19.6969V28.9139C78.7408 28.2602 79.3604 27.6938 80.2014 27.2144C81.0418 26.735 82.0599 26.4956 83.2545 26.4956C84.2715 26.4956 85.2121 26.6582 86.0748 26.9855C86.9377 27.3125 87.6783 27.8191 88.2982 28.5055C88.9171 29.1919 89.3982 30.0631 89.7412 31.12C90.0845 32.1769 90.2559 33.4242 90.2559 34.8621C90.2559 37.7382 89.4314 39.9881 87.7836 41.6114C86.1355 43.2347 83.7628 44.0461 80.666 44.0461C79.6918 44.0461 78.6911 43.9532 77.6623 43.7681C76.6336 43.5837 75.7654 43.3708 75.0571 43.1307V19.6969V19.6969ZM78.3431 40.9407C78.7408 41.0719 79.1669 41.1654 79.6207 41.219C80.0736 41.2736 80.5441 41.3008 81.0309 41.3008C81.849 41.3008 82.6073 41.1752 83.3043 40.925C84.0009 40.6745 84.6035 40.2932 85.1125 39.7808C85.6209 39.2693 86.0246 38.6156 86.3235 37.8199C86.6223 37.0247 86.7714 36.0828 86.7714 34.9936C86.7714 33.1848 86.4506 31.7786 85.8095 30.777C85.167 29.775 84.1055 29.273 82.6236 29.273C82.1146 29.273 81.6116 29.3551 81.1139 29.5182C80.6158 29.6817 80.156 29.9431 79.7366 30.3028C79.3163 30.6622 78.9789 31.1416 78.7246 31.741C78.4703 32.3401 78.3431 33.0644 78.3431 33.914V40.9407Z" fill="#2D2D2D"/>
<path d="M92.9134 29.2487H90.6884C90.6419 29.0695 90.6074 28.8605 90.5852 28.6251C90.5615 28.3886 90.5513 28.1584 90.5513 27.9334C90.5513 27.7094 90.5615 27.4785 90.5852 27.2421C90.6074 27.0064 90.6419 26.7984 90.6884 26.6182H96.2346V43.9185C95.983 43.9636 95.7037 43.9976 95.3956 44.0195C95.0875 44.0417 94.8079 44.0535 94.5572 44.0535C94.3285 44.0535 94.0602 44.0417 93.752 44.0195C93.4443 43.9976 93.165 43.9636 92.9134 43.9185V29.2487Z" fill="#2D2D2D"/>
<path d="M100.339 29.1318H97.751L97.6182 28.674L103.326 22.7422H103.592V26.55H107.906C107.994 26.9205 108.038 27.3345 108.038 27.7917C108.038 28.0321 108.027 28.261 108.005 28.4784C107.983 28.6962 107.95 28.9143 107.906 29.1318H103.592V37.1225C103.592 38.0379 103.63 38.7681 103.708 39.3126C103.785 39.8577 103.918 40.2766 104.106 40.5709C104.294 40.8653 104.548 41.0615 104.87 41.1589C105.189 41.257 105.594 41.3064 106.08 41.3064C106.456 41.3064 106.811 41.2789 107.142 41.2247C107.474 41.1704 107.773 41.1099 108.038 41.0445C108.193 41.4811 108.287 41.9274 108.321 42.3846C108.354 42.8424 108.371 43.2456 108.371 43.5939C107.927 43.7028 107.463 43.7849 106.977 43.8392C106.49 43.8932 105.97 43.9213 105.417 43.9213C103.824 43.9213 102.58 43.5396 101.684 42.777C100.788 42.0144 100.339 40.7508 100.339 38.9856V29.1318Z" fill="#2D2D2D"/>
<path d="M63.9399 35.0246L69.455 26.7936C69.7488 26.7488 70.0417 26.7157 70.3352 26.6932C70.628 26.6716 70.9332 26.6602 71.2489 26.6602C71.5873 26.6602 71.9087 26.6716 72.2135 26.6932C72.5173 26.7157 72.8267 26.7488 73.1435 26.7936L67.6285 34.7912L74.0908 43.8892C73.775 43.9333 73.4709 43.9667 73.1774 43.9896C72.8842 44.0108 72.5797 44.0223 72.2643 44.0223C71.9479 44.0223 71.6321 44.0108 71.317 43.9896C71.0002 43.9667 70.6848 43.9333 70.3697 43.8892L63.9399 35.0246Z" fill="#2D2D2D"/>
<path d="M8.68529 29.4883L8.68462 29.4814H8.39476C8.37982 29.4804 8.3617 29.4804 8.34942 29.4804L8.33332 29.4814H8.2767C8.16982 29.4814 7.20623 29.4683 6.28119 29.0213C5.12422 28.4628 4.53738 27.4709 4.53738 26.0729C4.53738 21.891 8.39327 21.6791 9.16607 21.6791C11.2486 21.6791 12.4861 22.8845 12.8446 25.2625L12.8964 25.6049L15.1552 25.6099V20.4969L14.8737 20.4056C14.7639 20.3713 12.1469 19.54 9.26751 19.54C6.33998 19.54 1.42822 20.4894 1.42822 26.8499C1.42822 32.8134 7.91961 32.9177 8.27221 32.919C8.56988 32.9426 13.1485 33.371 13.1485 36.994C13.1485 41.3601 10.4895 41.726 7.99662 41.726C6.46628 41.726 3.89853 41.194 3.89853 37.6314V37.2295L1.42822 37.2253V41.7342L1.59674 41.8545C1.71991 41.9422 4.64744 44.0034 7.88473 44.0034C13.5173 44.0034 16.495 41.2836 16.495 36.1379C16.495 30.2028 10.3471 29.5547 8.68529 29.4883L8.68529 29.4883Z" fill="#2D2D2D"/>
<path d="M101.261 8.73316H98.7111V6.22168H84.3747C83.8424 6.22168 83.4111 6.64646 83.4111 7.17101V19.0019C83.4111 19.5261 83.8424 19.9512 84.3747 19.9512H91.5812C91.5872 19.9666 91.5952 19.983 91.6075 20.0016L93.3091 22.6119C93.3918 22.7387 93.5017 22.7996 93.6109 22.7963C93.7202 22.7996 93.8298 22.7387 93.9124 22.6119L95.6144 20.0016C95.6267 19.983 95.6347 19.9666 95.6407 19.9512H102.847C103.379 19.9512 103.811 19.5261 103.811 19.0019V11.2447H101.261V8.73316H101.261Z" fill="#2D2D2D"/>
<path d="M102.621 7.39238H100.071V4.88086H102.621V7.39238Z" fill="#2D2D2D"/>
<path d="M107.041 9.90509H104.491V7.39355H107.041V9.90509Z" fill="#2D2D2D"/>
<path d="M109.592 5.04956H107.042V2.53809H109.592V5.04956Z" fill="#2D2D2D"/>
<path d="M88.6033 17.0766C88.5289 17.0766 88.415 17.0521 88.2955 16.935L84.9807 13.6985C84.8724 13.5932 84.8126 13.4519 84.812 13.3012C84.8113 13.1504 84.8697 13.0088 84.977 12.9022L85.4947 12.3888C85.6026 12.2815 85.747 12.2227 85.9007 12.2227C86.0525 12.2227 86.1952 12.2802 86.3028 12.3852L88.7258 14.7512C88.9031 14.9235 89.0276 15.2388 89.0157 15.484L88.9583 16.6813C88.9447 16.9543 88.7703 17.0766 88.6033 17.0766Z" fill="#EE4A49"/>
<path d="M87.2583 15.9245L88.3995 14.4238C88.3995 14.4238 88.6884 14.706 88.7395 14.7587C88.7907 14.8114 88.796 14.8326 88.796 14.8326L87.3426 16.0076L87.2583 15.9245Z" fill="#BF1312" fill-opacity="0.8"/>
<path d="M87.2583 15.9245L88.3995 14.4238C88.3995 14.4238 88.6884 14.706 88.7395 14.7587C88.7907 14.8114 88.796 14.8326 88.796 14.8326L87.3426 16.0076L87.2583 15.9245Z" fill="#8250A3" fill-opacity="0.2"/>
<path d="M88.7245 17.1054C88.5632 17.1054 88.4071 17.0436 88.2962 16.936L87.3423 16.007L92.3404 11.9703C92.432 11.896 92.533 11.8564 92.6312 11.8564C92.8039 11.8564 92.9931 11.9853 93.0011 12.2672L93.0359 13.3463C93.0446 13.5988 92.9015 13.9094 92.7026 14.0691L89.1087 16.9727C89.0028 17.0583 88.8663 17.1054 88.7245 17.1054Z" fill="#8250A3"/>
<path d="M95.2607 15.6153C95.1687 15.6153 95.0765 15.583 94.9864 15.5189L91.2368 12.8612L91.7365 12.4586L92.3405 11.9707C92.4554 11.8778 92.6071 11.8271 92.7675 11.8271C92.9109 11.8271 93.0494 11.869 93.1573 11.9452L95.195 13.3883C95.4015 13.5342 95.5655 13.8334 95.5768 14.0839L95.6243 15.1804C95.6323 15.3514 95.5689 15.4538 95.5144 15.5097C95.4483 15.5777 95.3583 15.6153 95.2607 15.6153Z" fill="#FFAD01"/>
<path d="M95.3701 15.6361C95.229 15.6361 95.0926 15.5942 94.9863 15.5183L93.8408 14.7063L98.9639 10.3795C99.0671 10.2922 99.1993 10.2441 99.3361 10.2441C99.5035 10.2441 99.6615 10.3158 99.7704 10.4403L100.249 10.9904C100.347 11.1039 100.396 11.2494 100.384 11.3998C100.372 11.5503 100.302 11.687 100.186 11.7844L95.8028 15.4849C95.6872 15.5824 95.5338 15.6361 95.3705 15.6361H95.3701Z" fill="#00AB6B"/>
<path d="M91.1392 12.9372L92.3584 14.3492C92.3584 14.3492 92.6539 14.1056 92.7316 14.0369C92.809 13.9686 92.806 13.9715 92.806 13.9715L91.2371 12.8594L91.1392 12.9372Z" fill="#4C2F60" fill-opacity="0.8"/>
<path d="M91.1392 12.9372L92.3584 14.3492C92.3584 14.3492 92.6539 14.1056 92.7316 14.0369C92.809 13.9686 92.806 13.9715 92.806 13.9715L91.2371 12.8594L91.1392 12.9372Z" fill="#EBA031" fill-opacity="0.2"/>
<path d="M93.7612 14.6499L94.916 13.1904C94.916 13.1904 95.1411 13.3471 95.1949 13.388C95.2494 13.4292 95.2989 13.4802 95.2989 13.4802L93.8416 14.7065L93.7612 14.6499Z" fill="#996800" fill-opacity="0.8"/>
<path d="M93.7612 14.6499L94.916 13.1904C94.916 13.1904 95.1411 13.3471 95.1949 13.388C95.2494 13.4292 95.2989 13.4802 95.2989 13.4802L93.8416 14.7065L93.7612 14.6499Z" fill="#00AB6B" fill-opacity="0.2"/>
</svg>
